<?xml version="1.0" encoding="UTF-8"?>
<svg width="193px" height="50px" viewBox="0 0 193 50" version="1.1" xmlns="http://www.w3.org/2000/svg" xmlns:xlink="http://www.w3.org/1999/xlink">
    <!-- Generator: Sketch 52.5 (67469) - http://www.bohemiancoding.com/sketch -->
    <title>logo</title>
    <desc>Created with Sketch.</desc>
    <defs>
        <polygon id="path-1" points="0.03 0.02 181.9405 0.02 181.9405 27.2175 0.03 27.2175"></polygon>
    </defs>
    <g id="monsterjob-newpages" stroke="none" stroke-width="1" fill="none" fill-rule="evenodd">
        <g id="splash" transform="translate(-91.000000, -309.000000)">
            <g id="logo" transform="translate(91.000000, 309.000000)">
                <g id="Group-3">
                    <mask id="mask-2" fill="white">
                        <use xlink:href="#path-1"></use>
                    </mask>
                    <g id="Clip-2"></g>
                    <path d="M157.352,11.6065 C157.352,8.014 152.5175,5.251 148.0955,5.251 C140.911,5.251 136.0765,10.2255 136.0765,16.165 C136.0765,21.829 141.3265,27.2175 148.3715,27.2175 C151.412,27.2175 154.728,26.1115 156.3855,23.902 L155.417,23.0715 C153.8985,24.4535 151.687,25.42 149.34,25.42 C146.161,25.42 142.846,22.66 142.846,19.896 L142.846,18.3745 C142.846,17.1315 144.227,16.028 145.748,16.028 L151.2715,16.028 C154.4495,16.028 157.352,14.369 157.352,11.6065 Z M181.9405,5.251 L180.146,5.251 C177.7985,5.251 175.8625,5.6655 174.0685,7.0475 L171.0275,9.395 C170.1995,10.086 169.5085,10.363 168.957,10.2255 C168.403,10.2255 168.127,9.81 168.127,9.395 L168.127,9.1185 C168.127,7.323 166.608,6.2185 164.3985,6.2185 L161.912,6.2185 L161.912,10.363 L162.0475,10.363 L162.0475,26.387 L167.297,26.387 L167.9875,21.969 C168.5405,17.686 169.6475,13.8165 173.2395,10.6395 L175.173,9.1185 C176.5525,8.014 177.937,7.0475 180.146,7.0475 L181.9405,7.0475 C181.9405,5.251 181.9405,5.251 181.9405,5.251 Z M129.722,6.7705 L132.9,6.7705 L132.9,5.251 L125.716,5.251 C123.643,5.251 122.5385,5.1125 121.709,3.3155 C121.157,2.35 121.709,0.0015 118.67,0.0015 L118.67,8.8435 C118.67,8.9805 118.67,8.9805 118.67,9.1185 L118.67,22.66 C118.67,25.56 121.433,27.2175 124.749,27.2175 C127.9265,27.2175 131.24,25.42 132.6235,22.9355 L131.795,22.3805 C131.103,23.4865 129.0315,25.1445 127.2345,25.1445 C125.9915,25.1445 125.301,24.178 125.301,23.211 L125.301,10.086 C125.301,7.7385 127.096,6.7705 129.722,6.7705 Z M32.0505,26.387 L32.0505,11.6065 C32.0505,10.363 31.4975,7.876 29.84,7.876 C27.0775,7.876 25.4185,14.5075 25.143,16.3015 L23.3465,26.387 L19.617,26.387 L19.617,12.021 C19.617,10.7765 19.341,7.876 17.4065,7.876 C14.5055,7.876 12.8485,14.646 12.572,16.44 L10.914,26.387 L6.6305,26.387 L6.7695,10.6395 C6.7695,8.9805 6.0785,6.495 3.1775,6.495 L0,6.495 L0,4.975 L9.809,4.975 C12.4335,4.975 13.4005,7.323 13.4005,9.1185 C14.92,7.4615 17.821,5.251 20.7225,5.251 C23.623,5.251 25.143,7.0475 25.4185,9.257 C27.3525,7.323 30.1155,5.251 33.5705,5.251 C37.024,5.251 37.853,7.876 37.853,10.2255 L37.853,26.387 L32.0505,26.387 Z M112.1775,9.533 C111.0725,8.4275 108.861,6.7705 106.79,6.7705 C105.132,6.7705 102.784,8.014 102.784,9.81 C102.784,14.092 112.729,15.75 112.729,20.8625 C112.729,24.178 108.998,26.938 104.855,26.938 C101.5395,26.938 99.33,26.1115 97.3945,24.178 L98.4995,23.347 C99.743,24.4535 100.71,25.2835 102.784,25.2835 C104.3035,25.2835 106.0975,24.317 106.0975,22.3805 C106.0975,18.789 95.737,16.3015 95.737,11.1915 C95.737,7.5995 100.573,5.251 104.579,5.251 C107.6175,5.251 111.486,6.632 113.145,8.5665 L112.1775,9.533 Z M85.101,5.251 C80.541,5.251 77.3645,7.5995 75.8445,9.1185 C75.8445,7.323 74.4625,6.2185 72.252,6.2185 L69.213,6.2185 L69.213,10.363 C69.213,10.501 69.213,10.501 69.213,10.501 L69.213,26.387 L73.9095,26.387 L75.8445,17.271 C76.674,13.6775 78.8825,6.7705 82.6145,6.7705 C85.2385,6.7705 85.9295,9.673 85.9295,11.33 L85.9295,26.387 L91.4545,26.387 L91.4545,11.468 C91.4545,8.1515 89.5215,5.251 85.101,5.251 Z M63.9625,15.337 C62.72,11.6065 59.2665,9.673 57.0555,10.6395 C58.298,12.021 58.9905,13.955 58.9905,16.165 C58.9905,17.407 58.7135,18.653 58.298,19.6195 C57.886,20.7225 56.5025,22.52 53.4635,22.52 C50.4245,22.52 48.352,19.896 47.9365,17.407 C47.9365,17.407 47.9365,17.407 47.9365,17.271 C47.9365,16.995 47.7995,16.58 47.7995,16.165 C47.7995,16.028 47.7995,15.75 47.9365,15.474 C47.9365,11.33 51.529,7.0475 55.6745,7.0475 C58.16,7.0475 60.5105,8.1515 62.305,10.2255 L62.72,9.948 C60.7845,7.0475 57.4705,5.1125 53.4635,5.1125 C46.832,5.1125 42.2735,10.086 42.2735,16.165 C42.2735,22.244 46.832,27.2175 53.4635,27.2175 C58.16,27.2175 61.891,24.5935 63.5485,20.8625 C64.5155,18.513 64.102,16.165 63.9625,15.474 C63.9625,15.337 63.9625,15.337 63.9625,15.337 Z M152.103,11.6065 C152.103,12.988 150.443,14.092 149.063,14.092 L143.123,14.092 C143.123,14.092 143.123,12.988 143.3975,11.8815 C143.814,9.673 145.4715,6.7705 147.958,6.7705 C150.3065,6.7705 152.103,9.533 152.103,11.6065 Z" id="Fill-1" fill="#5D4DA8" mask="url(#mask-2)"></path>
                </g>
                <path d="M188.0875,5.728 L189.192,5.728 C189.479,5.728 189.695,5.656 189.835,5.512 C189.976,5.368 190.046,5.191 190.046,4.9795 C190.046,4.7605 189.9715,4.595 189.822,4.4825 C189.673,4.3695 189.4855,4.3135 189.26,4.3135 L188.0875,4.3135 L188.0875,5.728 Z M190.7715,8.0395 L190.0775,8.0395 L189.2585,6.2255 L188.0875,6.2255 L188.0875,8.0395 L187.46,8.0395 L187.46,3.785 L189.26,3.785 C189.744,3.785 190.107,3.909 190.349,4.159 C190.588,4.4085 190.7085,4.685 190.7085,4.9895 C190.7085,5.215 190.6435,5.431 190.5105,5.639 C190.3795,5.8465 190.1715,5.994 189.891,6.0805 L190.7715,8.0395 Z M192.1865,5.9095 C192.1865,5.044 191.8785,4.305 191.265,3.6905 C190.6505,3.0765 189.912,2.769 189.046,2.769 C188.1845,2.769 187.446,3.0775 186.83,3.6935 C186.214,4.309 185.906,5.0475 185.906,5.9095 C185.906,6.775 186.2125,7.514 186.8245,8.128 C187.437,8.742 188.177,9.05 189.046,9.05 C189.9075,9.05 190.646,8.741 191.2625,8.1255 C191.878,7.51 192.1865,6.7715 192.1865,5.9095 Z M192.705,5.9095 C192.705,6.9145 192.346,7.7755 191.629,8.4925 C190.9125,9.2095 190.051,9.568 189.046,9.568 C188.041,9.568 187.1795,9.2095 186.4625,8.4925 C185.746,7.7755 185.3875,6.9145 185.3875,5.9095 C185.3875,4.9075 185.746,4.0475 186.4625,3.3285 C187.1795,2.61 188.041,2.251 189.046,2.251 C190.051,2.251 190.9125,2.61 191.629,3.3285 C192.346,4.0475 192.705,4.9075 192.705,5.9095 Z" id="Fill-4" fill="#5D4DA8"></path>
                <polyline id="Fill-5" fill="#5D4DA8" points="45.774 49.625 44.042 49.625 44.042 35.795 52.512 35.795 52.512 37.315 45.774 37.315 45.774 41.6815 51.357 41.6815 51.357 43.08 45.774 43.08 45.774 49.625"></polyline>
                <path d="M54.4375,49.625 L56.028,49.625 L56.028,39.3915 L54.4375,39.3915 L54.4375,49.625 Z M54.366,37.5685 L56.0785,37.5685 L56.0785,35.795 L54.366,35.795 L54.366,37.5685 Z" id="Fill-6" fill="#5D4DA8"></path>
                <path d="M67.181,49.625 L65.691,49.625 L65.691,43.0495 C65.691,42.104 65.485,41.4385 65.0735,41.0535 C64.6615,40.6685 64.1615,40.476 63.574,40.476 C62.7635,40.476 62.083,40.8005 61.5325,41.4485 C60.9815,42.097 60.707,42.9515 60.707,44.0115 L60.707,49.625 L59.116,49.625 L59.116,39.3915 L60.595,39.3915 L60.595,41.2765 C61.426,39.831 62.503,39.1085 63.827,39.1085 C64.5905,39.1085 65.2405,39.3055 65.7775,39.7005 C66.3145,40.096 66.6825,40.54 66.882,41.033 C67.081,41.5265 67.181,42.418 67.181,43.708 L67.181,49.625" id="Fill-7" fill="#5D4DA8"></path>
                <path d="M76.7655,43.3435 C76.7655,42.445 76.492,41.7255 75.9445,41.185 C75.397,40.645 74.759,40.3745 74.0295,40.3745 C73.2395,40.3745 72.589,40.726 72.0795,41.428 C71.569,42.131 71.314,43.117 71.314,44.3865 C71.314,45.7585 71.549,46.802 72.0185,47.5175 C72.488,48.2335 73.131,48.592 73.9485,48.592 C74.6915,48.592 75.347,48.281 75.9145,47.659 C76.4815,47.038 76.7655,46.3085 76.7655,45.4705 L76.7655,43.3435 Z M78.356,35.795 L78.356,49.625 L76.917,49.625 L76.917,47.872 C76.2005,49.23 75.1215,49.9085 73.681,49.9085 C72.4835,49.9085 71.4995,49.4065 70.7285,48.403 C69.9575,47.399 69.5715,46.1295 69.5715,44.5945 C69.5715,43.0265 69.9535,41.7195 70.7165,40.6755 C71.4795,39.6305 72.493,39.1085 73.756,39.1085 C74.9855,39.1085 75.9885,39.669 76.7655,40.79 L76.7655,35.795 L78.356,35.795 Z" id="Fill-8" fill="#5D4DA8"></path>
                <path d="M88.5385,48.1055 L92.2465,48.1055 C93.1515,48.1055 93.851,47.886 94.344,47.447 C94.8365,47.008 95.0835,46.437 95.0835,45.7345 C95.0835,45.241 94.972,44.7835 94.7495,44.3615 C94.526,43.9395 94.212,43.6135 93.807,43.384 C93.4015,43.1545 92.797,43.039 91.9935,43.039 L88.5385,43.039 L88.5385,48.1055 Z M88.5385,41.722 L91.5475,41.722 C92.797,41.722 93.631,41.484 94.05,41.008 C94.469,40.5315 94.678,39.9725 94.678,39.331 C94.678,38.6965 94.4535,38.1825 94.0045,37.791 C93.555,37.3995 92.885,37.203 91.9935,37.203 L88.5385,37.203 L88.5385,41.722 Z M86.8665,49.625 L86.8665,35.795 L92.3375,35.795 C93.7155,35.795 94.737,36.1325 95.4025,36.8075 C96.0675,37.4825 96.4005,38.265 96.4005,39.156 C96.4005,40.722 95.5835,41.761 93.9485,42.2745 C94.921,42.5245 95.6445,42.9705 96.117,43.613 C96.5895,44.255 96.8265,44.9815 96.8265,45.7925 C96.8265,46.881 96.4595,47.7915 95.727,48.525 C94.994,49.2585 93.864,49.625 92.3375,49.625 L86.8665,49.625 Z" id="Fill-9" fill="#5D4DA8"></path>
                <path d="M105.935,43.465 C105.921,42.8905 105.827,42.381 105.651,41.935 C105.4755,41.4895 105.1785,41.1095 104.7595,40.795 C104.3405,40.481 103.8375,40.324 103.25,40.324 C102.4595,40.324 101.7895,40.6075 101.239,41.175 C100.688,41.742 100.379,42.506 100.312,43.465 L105.935,43.465 Z M106.026,46.575 L107.5055,46.8795 C107.235,47.7535 106.7085,48.477 105.9245,49.05 C105.1415,49.6225 104.219,49.9085 103.159,49.9085 C101.7605,49.9085 100.629,49.417 99.7645,48.433 C98.9,47.4495 98.4675,46.16 98.4675,44.564 C98.4675,42.935 98.9165,41.618 99.815,40.6145 C100.7135,39.6105 101.8415,39.1085 103.1995,39.1085 C104.537,39.1085 105.612,39.571 106.4265,40.496 C107.24,41.422 107.6575,42.806 107.6775,44.6505 L100.241,44.6505 C100.241,46.1975 100.565,47.2405 101.2135,47.7815 C101.862,48.3215 102.5475,48.592 103.2705,48.592 C104.574,48.592 105.4925,47.9195 106.026,46.575 Z" id="Fill-10" fill="#5D4DA8"></path>
                <path d="M129.045,43.465 C129.0315,42.8905 128.9375,42.381 128.7615,41.935 C128.5855,41.4895 128.289,41.1095 127.87,40.795 C127.451,40.481 126.948,40.324 126.36,40.324 C125.57,40.324 124.8995,40.6075 124.3495,41.175 C123.7985,41.742 123.4895,42.506 123.422,43.465 L129.045,43.465 Z M129.1365,46.575 L130.616,46.8795 C130.3455,47.7535 129.8185,48.477 129.035,49.05 C128.2515,49.6225 127.3295,49.9085 126.2695,49.9085 C124.871,49.9085 123.7395,49.417 122.875,48.433 C122.0105,47.4495 121.578,46.16 121.578,44.564 C121.578,42.935 122.027,41.618 122.9255,40.6145 C123.824,39.6105 124.952,39.1085 126.31,39.1085 C127.647,39.1085 128.7225,39.571 129.537,40.496 C130.3505,41.422 130.768,42.806 130.788,44.6505 L123.3515,44.6505 C123.3515,46.1975 123.6755,47.2405 124.324,47.7815 C124.9725,48.3215 125.658,48.592 126.3805,48.592 C127.6845,48.592 128.603,47.9195 129.1365,46.575 Z" id="Fill-11" fill="#5D4DA8"></path>
                <path d="M134.7705,49.625 L133.1795,49.625 L133.1795,39.3915 L134.5775,39.3915 L134.5775,41.783 C135.0705,40.655 135.565,39.924 136.062,39.5895 C136.5585,39.255 137.0665,39.088 137.5865,39.088 C137.749,39.088 137.9585,39.1015 138.2145,39.1285 L138.2145,40.6485 L137.8905,40.6485 C137.0125,40.6485 136.283,40.976 135.702,41.631 C135.1215,42.286 134.8105,43.1475 134.7705,44.215 L134.7705,49.625" id="Fill-12" fill="#5D4DA8"></path>
                <path d="M149.0945,40.1315 L148.479,40.1315 L148.479,36.9575 L147.2115,40.1315 L146.768,40.1315 L145.485,36.9575 L145.485,40.1315 L144.926,40.1315 L144.926,36.142 L145.803,36.142 L147.031,39.1675 L148.228,36.142 L149.0945,36.142 L149.0945,40.1315 Z M143.25,40.1315 L142.6085,40.1315 L142.6085,36.645 L141.4095,36.645 L141.4095,36.142 L144.4545,36.142 L144.4545,36.645 L143.25,36.645 L143.25,40.1315 Z" id="Fill-13" fill="#5D4DA8"></path>
                <path d="M114.6455,48.6325 L114.6455,49.8885 C114.0845,49.963 113.5985,50 113.1865,50 C111.2075,50 110.218,48.9655 110.218,46.8965 L110.218,40.7295 L108.404,40.7295 L108.404,39.483 L110.218,39.483 L110.289,36.9095 L111.768,36.768 L111.768,39.483 L113.5775,39.483 L113.5775,40.7295 L111.768,40.7295 L111.768,47.161 C111.768,48.2165 112.315,48.7435 113.4095,48.7435 C113.774,48.7435 114.186,48.7065 114.6455,48.6325" id="Fill-14" fill="#5D4DA8"></path>
                <path d="M121.095,48.6285 L121.095,49.885 C120.5345,49.959 120.048,49.996 119.636,49.996 C117.657,49.996 116.6675,48.9615 116.6675,46.8925 L116.6675,40.7255 L114.841,40.7255 L114.841,39.479 L116.6675,39.479 L116.7385,36.906 L118.2175,36.764 L118.2175,39.479 L120.5075,39.479 L120.5075,40.7255 L118.2175,40.7255 L118.2175,47.157 C118.2175,48.2125 118.765,48.74 119.859,48.74 C120.224,48.74 120.6355,48.7025 121.095,48.6285" id="Fill-15" fill="#5D4DA8"></path>
                <polygon id="Fill-16" fill="#5D4DA8" points="138.772 49.6325 140.37 49.6325 140.37 48.035 138.772 48.035"></polygon>
            </g>
        </g>
    </g>
</svg>